<?xml version="1.0" encoding="UTF-8" standalone="no"?>
<!-- Created with Inkscape (http://www.inkscape.org/) -->

<svg
   xmlns:dc="http://purl.org/dc/elements/1.1/"
   xmlns:cc="http://creativecommons.org/ns#"
   xmlns:rdf="http://www.w3.org/1999/02/22-rdf-syntax-ns#"
   xmlns:svg="http://www.w3.org/2000/svg"
   xmlns="http://www.w3.org/2000/svg"
   xmlns:sodipodi="http://sodipodi.sourceforge.net/DTD/sodipodi-0.dtd"
   xmlns:inkscape="http://www.inkscape.org/namespaces/inkscape"
   width="40.858402mm"
   height="42.638462mm"
   viewBox="0 0 144.77387 151.08116"
   id="svg3928"
   version="1.1"
   inkscape:version="0.91 r13725"
   sodipodi:docname="shinken_mascot_001.svg">
  <defs
     id="defs3930" />
  <sodipodi:namedview
     id="base"
     pagecolor="#ffffff"
     bordercolor="#666666"
     borderopacity="1.0"
     inkscape:pageopacity="0.0"
     inkscape:pageshadow="2"
     inkscape:zoom="1.4"
     inkscape:cx="-2.1194083"
     inkscape:cy="75.055421"
     inkscape:document-units="px"
     inkscape:current-layer="layer1"
     showgrid="false"
     fit-margin-top="0"
     fit-margin-left="0"
     fit-margin-right="0"
     fit-margin-bottom="0"
     inkscape:window-width="1920"
     inkscape:window-height="1005"
     inkscape:window-x="-9"
     inkscape:window-y="-9"
     inkscape:window-maximized="1" />
  <metadata
     id="metadata3933">
    <rdf:RDF>
      <cc:Work
         rdf:about="">
        <dc:format>image/svg+xml</dc:format>
        <dc:type
           rdf:resource="http://purl.org/dc/dcmitype/StillImage" />
        <dc:title></dc:title>
      </cc:Work>
    </rdf:RDF>
  </metadata>
  <g
     inkscape:label="Calque 1"
     inkscape:groupmode="layer"
     id="layer1"
     transform="translate(-381.89878,-625.39305)">
    <path
       inkscape:connector-curvature="0"
       id="path4182"
       d="m 455.77134,772.19105 c -0.66086,-1.7222 -2.52218,-12.8305 -3.06478,-18.29061 -1.31321,-13.21445 1.96908,-20.1956 9.85821,-20.96755 2.38693,-0.23357 3.35181,-0.0501 5.33297,1.01371 5.24578,2.81696 6.36323,9.45954 2.85316,16.96047 -0.92376,1.97405 -1.47634,3.58917 -1.22798,3.58917 1.01481,0 10.37595,-9.76383 12.47498,-13.01163 4.0468,-6.26156 4.29981,-10.02419 0.87616,-13.03024 -1.80525,-1.58504 -6.30387,-3.31915 -8.65571,-3.33656 -0.61876,-0.005 -1.49214,-0.25167 -1.94085,-0.54907 -0.67606,-0.4481 -0.41996,-0.91582 1.49485,-2.73 l 2.31067,-2.18925 3.67205,2.78113 c 4.40161,3.33369 12.23356,7.27375 16.70358,8.40317 1.78288,0.45047 5.13863,0.81904 7.45721,0.81904 4.71151,0 4.8985,-0.11357 8.21329,-4.98839 1.58291,-2.32787 2.04958,-2.64101 4.74686,-3.18523 4.58371,-0.92484 4.63674,-0.95353 5.63599,-3.049 0.51548,-1.08099 0.86556,-2.03109 0.77796,-2.11132 -0.0876,-0.0802 -1.32486,0.0341 -2.74946,0.25408 l -2.59017,0.39995 0.82255,-1.25539 c 0.4524,-0.69045 0.82255,-1.35237 0.82255,-1.4709 0,-0.11854 -2.36452,0.35611 -5.2545,1.05478 -8.04504,1.94494 -17.4017,2.71684 -23.63979,1.95022 -2.83272,-0.34813 -6.11771,-0.97633 -7.29998,-1.39602 -2.46218,-0.87404 -2.53504,-0.84183 4.45909,-1.97109 20.98256,-3.38777 28.82437,-29.1605 13.29298,-43.68846 -9.78671,-9.15443 -24.79261,-9.042 -34.62739,0.25944 l -2.85022,2.69565 -0.38758,-1.79913 c -0.86247,-4.00358 -3.81317,-7.86306 -7.44136,-9.7332 -2.71216,-1.39797 -4.33804,-1.30943 -5.86843,0.3196 -1.18626,1.26273 -1.20272,1.36011 -0.23078,1.36505 3.3125,0.0168 9.83899,5.08141 12.15804,9.4347 1.22703,2.30335 0.12243,2.86731 -2.75249,1.40531 -8.13741,-4.1382 -13.2846,-9.64239 -14.35557,-15.35122 -0.20851,-1.11144 -0.48237,-2.02079 -0.60859,-2.02079 -0.12622,0 -1.4451,0.616 -2.93083,1.36889 -3.11599,1.579 -3.23197,2.09167 -1.37531,6.07946 2.89801,6.22444 8.97327,10.46764 16.76139,11.7068 l 4.04608,0.64377 -2.26471,2.78048 c -4.34645,5.33633 -7.44571,10.0532 -10.78982,16.42141 l -3.36819,6.41405 -3.53525,0.16697 c -5.81334,0.27455 -11.6054,-1.94053 -19.32523,-7.39059 -5.2445,-3.70253 -12.57067,-10.69655 -13.00115,-12.41169 -0.30299,-1.20721 0.39022,-2.33228 4.77459,-7.74909 10.41436,-12.86676 33.19532,-36.38425 41.85808,-43.21139 3.81502,-3.00662 4.14841,-3.41526 3.29532,-4.03906 -2.1494,-1.5717 -3.62529,-0.77796 -11.8955,6.39748 -9.20212,7.98398 -27.64716,26.49393 -36.0631,36.19001 -4.9681,5.72379 -6.95235,7.646 -7.8602,7.61446 -0.95936,-0.0333 -1.20153,0.24339 -1.15306,1.31756 0.0424,0.94031 -2.43209,4.84531 -8.02229,12.65987 -4.44601,6.21509 -8.08365,11.60633 -8.08365,11.98056 0,1.11443 1.51823,2.94146 2.70146,3.25088 0.89083,0.23296 1.68609,-0.53886 4.13322,-4.01139 1.66659,-2.36493 3.14034,-4.29986 3.27501,-4.29986 0.13466,0 0.10261,0.5667 -0.0713,1.25933 -0.73456,2.92672 8.52594,8.76848 16.631,10.49126 6.71672,1.42768 22.1606,0.52815 29.40433,-1.71266 0.75351,-0.23309 0.70059,0.3637 -0.3966,4.47251 -5.27985,19.77236 -0.85369,41.72134 10.99399,54.51841 2.9456,3.18164 4.48806,4.18924 3.84413,2.51115 z"
       style="fill:#000000;fill-opacity:1;stroke:#000000;stroke-width:0.99999994"
       sodipodi:nodetypes="sssssssscsscsssssscscsssssssscssssssssssscsscsssssssscssssssssssss" />
    <path
       sodipodi:nodetypes="ssssscssscsss"
       style="fill:#ffffff;fill-opacity:1;stroke:none"
       d="m 496.65014,697.7168 c 1.04064,-0.49382 2.52807,-1.69494 3.30541,-2.66915 1.3387,-1.67777 1.47987,-1.72771 2.67319,-0.94581 1.69165,1.10843 3.63557,0.53907 4.51004,-1.32096 0.39014,-0.8298 0.83275,-3.3042 0.9836,-5.49866 l 0.27427,-3.98991 -2.99427,1.68989 c -2.3833,1.34506 -3.86898,1.75612 -7.28099,2.01451 -3.8886,0.29447 -15.65105,-0.43637 -20.28782,-1.26054 l -1.86011,-0.33064 1.24505,1.74854 c 2.33695,3.28199 7.36613,8.37963 9.78812,9.9214 2.84845,1.81322 6.64227,2.06553 9.64351,0.64133 z"
       id="path4184"
       inkscape:connector-curvature="0" />
  </g>
</svg>
